<?xml version="1.0" encoding="utf-8"?>
<!-- Generator: Adobe Illustrator 23.0.6, SVG Export Plug-In . SVG Version: 6.00 Build 0)  -->
<svg version="1.1" id="Layer_1" xmlns="http://www.w3.org/2000/svg" xmlns:xlink="http://www.w3.org/1999/xlink" x="0px" y="0px"
	 viewBox="0 0 100 70" style="enable-background:new 0 0 100 70;" xml:space="preserve">
<style type="text/css">
	.st0{stroke:#000000;stroke-miterlimit:10;}
	.st1{stroke:#000000;stroke-width:2;stroke-miterlimit:10;}
	.st2{fill:#FFFFFF;stroke:#000000;stroke-miterlimit:10;}
	.st3{fill:none;stroke:#000000;stroke-miterlimit:10;}
</style>
<g>
	<g>
		<path d="M36.01,44.35c-0.59,3.13-1.2,6.55,0.34,9.51c0.34,0.65,3.09-0.13,2.9-0.78c-0.46-1.53-0.43-3.12,0.11-4.62
			c0.18-0.5-0.96-0.34-1.16-0.3c-0.38,0.07-0.76,0.18-1.1,0.35c-0.19,0.09-0.51,0.24-0.59,0.46c-0.56,1.58-0.62,3.29-0.14,4.89
			c0.97-0.26,1.93-0.52,2.9-0.78c-1.51-2.89-0.96-6.18-0.38-9.24c0.1-0.51-0.9-0.35-1.16-0.3c-0.38,0.07-0.76,0.18-1.1,0.35
			C36.43,43.98,36.04,44.14,36.01,44.35L36.01,44.35z"/>
	</g>
</g>
<g>
	<g>
		<path d="M34.53,28.39c0.65,0,1.59-0.18,1.9-0.85c0.27-0.6-0.24-1.09-0.85-1.09c-0.65,0-1.59,0.18-1.9,0.85
			C33.41,27.9,33.92,28.39,34.53,28.39L34.53,28.39z"/>
	</g>
</g>
<g>
	<g>
		<path d="M34.63,60.88c0.65,0,1.59-0.18,1.9-0.85c0.28-0.6-0.24-1.06-0.84-1.06c-0.65,0-1.59,0.18-1.9,0.85
			C33.52,60.41,34.03,60.88,34.63,60.88L34.63,60.88z"/>
	</g>
</g>
<g>
	<g>
		<path d="M36.01,60.66c0.56,0,1.63-0.2,1.92-0.77c0.29-0.57-0.25-0.76-0.76-0.76c-0.56,0-1.63,0.2-1.92,0.77
			C34.96,60.47,35.5,60.66,36.01,60.66L36.01,60.66z"/>
	</g>
</g>
<g>
	<g>
		<path d="M65.27,60.85c0.64,0,1.53-0.13,2.05-0.55c0.37-0.3,0.47-0.62-0.17-0.62c-0.64,0-1.53,0.13-2.05,0.55
			C64.73,60.53,64.63,60.85,65.27,60.85L65.27,60.85z"/>
	</g>
</g>
<g>
	<g>
		<path d="M64.61,60.95c0.61,0,1.61-0.18,1.9-0.82c0.27-0.59-0.23-0.97-0.82-0.97c-0.61,0-1.61,0.18-1.9,0.82
			C63.52,60.57,64.02,60.95,64.61,60.95L64.61,60.95z"/>
	</g>
</g>
<g>
	<g>
		<path d="M63.55,60.86c1.68,0,2.2-2.2,0.24-2.2C62.1,58.66,61.59,60.86,63.55,60.86L63.55,60.86z"/>
	</g>
</g>
<g>
	<g>
		<path d="M62.54,60.27c0.64,0,1.53-0.15,2.05-0.55c0.38-0.3,0.47-0.58-0.16-0.58c-0.64,0-1.53,0.15-2.05,0.55
			C62,59.99,61.91,60.27,62.54,60.27L62.54,60.27z"/>
	</g>
</g>
<g>
	<g>
		<path d="M62.32,60.68c0.65,0,1.59-0.18,1.9-0.85c0.27-0.6-0.24-1.08-0.85-1.08c-0.65,0-1.59,0.18-1.9,0.85
			C61.2,60.19,61.71,60.68,62.32,60.68L62.32,60.68z"/>
	</g>
</g>
<g>
	<g>
		<path d="M60.59,60.34c0.29,0,0.58,0,0.87,0c0.19,0.01,0.38-0.01,0.56-0.06c0.2-0.03,0.39-0.09,0.57-0.17
			c0.17-0.06,0.32-0.15,0.46-0.26c0.13-0.08,0.23-0.18,0.32-0.3c0.03-0.07,0.07-0.14,0.1-0.21c0.03-0.15,0-0.27-0.1-0.38
			c-0.06-0.04-0.13-0.09-0.19-0.13c-0.19-0.08-0.38-0.12-0.59-0.12c-0.29,0-0.58,0-0.87,0c-0.19-0.01-0.38,0.01-0.56,0.06
			c-0.2,0.03-0.39,0.09-0.57,0.17c-0.17,0.06-0.32,0.15-0.46,0.26c-0.13,0.08-0.23,0.18-0.32,0.3c-0.03,0.07-0.07,0.14-0.1,0.21
			c-0.03,0.15,0,0.27,0.1,0.38c0.06,0.04,0.13,0.09,0.19,0.13C60.19,60.3,60.39,60.34,60.59,60.34L60.59,60.34z"/>
	</g>
</g>
<rect x="36.97" y="52.45" class="st0" width="4.55" height="7.16"/>
<g id="House1">
	<path class="st1" d="M29.85,27.69c7.23-8.64,13.21-17.28,20.43-25.92c6.17,8.39,13.7,17.52,19.87,25.92"/>
	<path class="st0" d="M60.41,60.15c-6.76-0.54-12.83-0.54-20.34-0.07c-1.69-12.76-3.38-25.52-5.08-38.28h30.02
		C63.47,34.57,61.94,47.36,60.41,60.15z"/>
	<path class="st2" d="M58.41,38.69c-2.62,0.02-2.91,0.02-5.52,0.03v-8.37h6.52L58.41,38.69z"/>
	<path class="st2" d="M48.05,38.68c-2.62,0.02-2.8,0.02-5.42,0.03l-1.11-8.36h6.52V38.68z"/>
	<polygon class="st2" points="53.37,59.61 48.05,59.61 47.3,46.41 54.36,46.41 	"/>
</g>
<g id="House3">
	<path class="st1" d="M8.06,40.58c4.55-7.63,8.08-15.05,12.63-22.68c6.36,5.12,13.94,10.55,20.3,15.68"/>
	<path class="st0" d="M38.13,59.22C32.51,60,27.55,61.06,21.49,62.7c-3.38-9.12-6.77-18.25-10.15-27.37l24.53-5.21
		C36.62,39.82,37.37,49.52,38.13,59.22z"/>
	<path class="st2" d="M33.13,43.73c-2.14,0.47-2.37,0.52-4.51,0.98l-1.31-6.18l5.33-1.13L33.13,43.73z"/>
	<path class="st2" d="M24.66,45.53c-2.14,0.47-2.29,0.5-4.42,0.97l-2.22-5.98l5.33-1.13L24.66,45.53z"/>
	<polygon class="st2" points="32.29,60.05 27.94,60.97 25.26,51.36 31.03,50.13 	"/>
</g>
<g id="House2">
	<path class="st1" d="M60.14,35.99c5.78-4.46,10.82-9.12,16.6-13.58c2.19,6.42,5.06,13.54,7.25,19.97"/>
	<path class="st0" d="M72.58,61.89c-3.91-1.42-7.5-2.38-12.02-3.27c1.22-8.55,2.44-17.1,3.65-25.65l17.76,4.76
		C78.84,45.79,75.71,53.84,72.58,61.89z"/>
	<path class="st2" d="M75.13,47.65c-1.55-0.4-1.72-0.45-3.27-0.85l1.46-5.43l3.86,1.03L75.13,47.65z"/>
	<path class="st2" d="M69,46.01c-1.55-0.4-1.66-0.43-3.21-0.84l0.8-5.6l3.86,1.03L69,46.01z"/>
	<polygon class="st2" points="68.51,60.43 65.36,59.59 67.21,50.9 71.39,52.02 	"/>
</g>
<path class="st3" d="M5.99,69.31c7.69-3.55,18.46-7.42,31.71-8.99c25.77-3.04,46.28,4.36,56.31,8.82"/>
</svg>
